<svg xmlns="http://www.w3.org/2000/svg" viewBox="0 0 410 404">
  <defs>
    <linearGradient x1="12.959%" y1="12.039%" x2="71.941%" y2="78.195%" id="a">
      <stop stop-color="#41D1FF" offset="0%" />
      <stop stop-color="#BD34FE" offset="100%" />
    </linearGradient>
    <linearGradient x1="43.376%" y1="2.242%" x2="50.316%" y2="89.03%" id="b">
      <stop stop-color="#FFEA83" offset="0%" />
      <stop stop-color="#FFDD35" offset="8.333%" />
      <stop stop-color="#FFA800" offset="100%" />
    </linearGradient>
  </defs>
  <path d="M399.641 59.525 215.33 388.524c-5.51 9.594-19.79 9.6-25.31.01L10.366 59.53c-5.68-9.823 1.71-22.18 12.66-21.09l178.35 17.533a12 12 0 0 0 8.89-2.75l132.25-109.376c9.34-7.71 23.28-1.65 24.02 10.35l10.74 183.569a12 12 0 0 0 9.39 11.015l177.96 36.463c10.94 2.245 15.12 15.832 7.21 24.133Z" fill="url(#a)" />
  <path d="M305.53 4.369c9.9-7.314 23.88-.179 24.64 11.44l10.74 183.569a12 12 0 0 0 9.39 11.015l177.96 36.463c10.94 2.245 15.12 15.832 7.21 24.133L305.53 4.369Z" fill="url(#b)" />
</svg>
